<svg width="250" height="62" viewBox="0 0 250 62" fill="none" xmlns="http://www.w3.org/2000/svg">
<g clip-path="url(#clip0_9039_119)">
<path d="M98.0784 41.2522V25.3404H97.9756L91.2707 41.1098H89.0549L82.35 25.3404H82.2472V41.2522H79.7986V20.6038H82.8442L90.1023 37.8318H90.2187L97.4768 20.6038H100.522V41.2522H98.0739H98.0784Z" fill="black"/>
<path d="M104.04 22.3222C104.04 21.463 104.754 20.7775 105.613 20.7775C106.472 20.7775 107.202 21.4645 107.202 22.3222C107.202 23.1799 106.487 23.8684 105.613 23.8684C104.739 23.8684 104.04 23.1665 104.04 22.3222ZM104.346 26.3717H106.883V41.2537H104.346V26.3717Z" fill="black"/>
<path d="M110.308 26.3717H112.697V28.7475H112.756C113.601 27.1448 115.22 26.115 117.566 26.115C120.89 26.115 122.812 28.2192 122.812 31.595V41.2537H120.276V32.0387C120.276 29.6348 119.124 28.3186 116.792 28.3186C114.46 28.3186 112.842 29.9791 112.842 32.4972V41.2552H110.306V26.3732L110.308 26.3717Z" fill="black"/>
<path d="M125.859 22.3222C125.859 21.463 126.574 20.7775 127.433 20.7775C128.291 20.7775 129.021 21.4645 129.021 22.3222C129.021 23.1799 128.306 23.8684 127.433 23.8684C126.559 23.8684 125.859 23.1665 125.859 22.3222ZM126.166 26.3717H128.702V41.2537H126.166V26.3717Z" fill="black"/>
<path d="M132.944 28.4165H130.831V26.3703H132.944V24.7098C132.944 21.8474 134.299 20.4881 137.097 20.4881C137.665 20.4881 138.278 20.546 138.642 20.6024V22.6205C138.337 22.5774 137.913 22.5344 137.49 22.5344C136.121 22.5344 135.465 23.2496 135.465 24.7231V26.3688H138.569V28.4151H135.48V41.2507H132.944V28.4151V28.4165Z" fill="black"/>
<path d="M141.018 22.3222C141.018 21.463 141.733 20.7775 142.592 20.7775C143.45 20.7775 144.18 21.4645 144.18 22.3222C144.18 23.1799 143.465 23.8684 142.592 23.8684C141.718 23.8684 141.018 23.1665 141.018 22.3222ZM141.325 26.3717H143.861V41.2537H141.325V26.3717Z" fill="black"/>
<path d="M157.401 31.2508C157.037 29.6333 155.753 28.3038 153.524 28.3038C150.9 28.3038 149.123 30.4361 149.123 33.8135C149.123 37.1908 150.93 39.3217 153.553 39.3217C155.622 39.3217 156.978 38.2488 157.415 36.4592H159.907C159.514 39.4211 156.978 41.5104 153.538 41.5104C149.34 41.5104 146.541 38.6049 146.541 33.812C146.541 29.019 149.325 26.1135 153.507 26.1135C157.297 26.1135 159.556 28.5753 159.877 31.2508H157.399H157.401Z" fill="black"/>
<path d="M161.628 37.0454C161.628 34.499 163.625 32.8964 167.123 32.6961L171.467 32.4527V31.2077C171.467 29.39 170.242 28.3023 168.143 28.3023C166.19 28.3023 164.966 29.2045 164.645 30.6632H162.197C162.372 28.0871 164.617 26.1135 168.202 26.1135C171.787 26.1135 174.003 28.0025 174.003 30.9644V41.2522H171.598V38.691H171.539C170.635 40.3945 168.711 41.5104 166.671 41.5104C163.654 41.5104 161.628 39.7223 161.628 37.0454ZM171.467 35.6001V34.3833L167.414 34.6266C165.374 34.7557 164.209 35.6431 164.209 37.0454C164.209 38.4477 165.418 39.3914 167.241 39.3914C169.632 39.3914 171.468 37.7458 171.468 35.6001H171.467Z" fill="black"/>
<path d="M177.224 26.3717H179.614V28.7475H179.673C180.517 27.1448 182.136 26.115 184.482 26.115C187.806 26.115 189.728 28.2192 189.728 31.595V41.2537H187.192V32.0387C187.192 29.6348 186.04 28.3186 183.708 28.3186C181.376 28.3186 179.759 29.9791 179.759 32.4972V41.2552H177.222V26.3732L177.224 26.3717Z" fill="black"/>
<path d="M192.207 33.812C192.207 29.1466 194.816 26.1135 198.636 26.1135C200.808 26.1135 202.556 27.1582 203.46 28.789H203.519V20.6038H206.055V41.2522H203.636V38.734H203.592C202.615 40.4509 200.88 41.5104 198.695 41.5104C194.833 41.5104 192.209 38.4773 192.209 33.812H192.207ZM194.802 33.812C194.802 37.1893 196.494 39.3202 199.175 39.3202C201.857 39.3202 203.533 37.1448 203.533 33.812C203.533 30.4792 201.784 28.3023 199.175 28.3023C196.566 28.3023 194.802 30.448 194.802 33.812Z" fill="black"/>
<path d="M208.737 33.812C208.737 29.0606 211.565 26.1135 215.762 26.1135C219.96 26.1135 222.772 29.0606 222.772 33.812C222.772 38.5634 219.944 41.5104 215.762 41.5104C211.58 41.5104 208.737 38.5486 208.737 33.812ZM220.192 33.812C220.192 30.3055 218.444 28.3023 215.762 28.3023C213.081 28.3023 211.317 30.3055 211.317 33.812C211.317 37.3184 213.081 39.3202 215.762 39.3202C218.444 39.3202 220.192 37.3169 220.192 33.812Z" fill="black"/>
<path d="M224.929 39.7639C224.929 38.8483 225.658 38.1331 226.59 38.1331C227.523 38.1331 228.251 38.8483 228.251 39.7639C228.251 40.6794 227.523 41.3947 226.59 41.3947C225.658 41.3947 224.929 40.6794 224.929 39.7639Z" fill="black"/>
<path d="M231.417 37.0454C231.417 34.499 233.413 32.8964 236.911 32.6961L241.255 32.4527V31.2077C241.255 29.39 240.03 28.3023 237.931 28.3023C235.978 28.3023 234.754 29.2045 234.433 30.6632H231.985C232.16 28.0871 234.405 26.1135 237.99 26.1135C241.575 26.1135 243.791 28.0025 243.791 30.9644V41.2522H241.386V38.691H241.327C240.423 40.3945 238.499 41.5104 236.459 41.5104C233.442 41.5104 231.417 39.7223 231.417 37.0454ZM241.255 35.6001V34.3833L237.202 34.6266C235.162 34.7557 233.997 35.6431 233.997 37.0454C233.997 38.4477 235.206 39.3914 237.029 39.3914C239.418 39.3914 241.255 37.7458 241.255 35.6001Z" fill="black"/>
<path d="M246.836 22.3222C246.836 21.463 247.551 20.7775 248.41 20.7775C249.268 20.7775 249.998 21.4645 249.998 22.3222C249.998 23.1799 249.284 23.8684 248.41 23.8684C247.536 23.8684 246.836 23.1665 246.836 22.3222ZM247.143 26.3717H249.68V41.2537H247.143V26.3717Z" fill="black"/>
<path d="M31.5763 0C14.1369 0 0 13.8788 0 31C0 48.1212 14.1369 62 31.5763 62C49.0157 62 63.1526 48.1212 63.1526 31C63.1526 13.8788 49.0157 0 31.5763 0ZM48.4686 32.4216C48.3038 32.6634 48.0635 32.7718 47.796 32.8326C45.3716 33.3816 43.0272 34.1562 40.822 35.2959C38.8253 36.3287 37.1098 37.7057 35.8115 39.5279C34.9227 40.7759 34.2818 42.1604 33.771 43.5982C33.3024 44.9204 32.8928 46.2618 32.5421 47.6181C32.3411 48.4001 31.4554 48.6568 30.9097 48.2577C30.6588 48.0737 30.5727 47.8066 30.4926 47.5335C30.225 46.6387 29.9696 45.741 29.6975 44.8477C29.1262 42.9706 28.3614 41.175 27.264 39.5309C26.6066 38.5471 25.7737 37.7191 24.8442 36.9816C23.1468 35.6342 21.2257 34.7023 19.1791 33.9841C17.8989 33.5345 16.5975 33.162 15.281 32.8385C14.7989 32.7198 14.5208 32.3934 14.5162 31.9675C14.5102 31.5268 14.7989 31.1603 15.2901 31.0505C17.1477 30.632 18.9464 30.0251 20.7118 29.3321C23.3025 28.3142 25.4835 26.7457 27.122 24.4931C28.0561 23.2081 28.768 21.8117 29.306 20.3293C29.7383 19.1363 30.1328 17.9314 30.4487 16.7012C30.5062 16.4757 30.5802 16.2501 30.6709 16.0364C30.8296 15.658 31.147 15.4889 31.5128 15.4533C31.9783 15.4414 32.3245 15.6981 32.465 16.1685C32.7039 16.9668 32.926 17.7711 33.1588 18.5724C33.8163 20.8339 34.7368 22.9707 36.2135 24.8493C37.3275 26.2679 38.6938 27.3897 40.2628 28.2978C41.8438 29.2119 43.5668 29.7624 45.305 30.2862C46.15 30.54 46.9994 30.773 47.8549 30.9822C48.532 31.1469 48.8631 31.8473 48.4686 32.4231V32.4216ZM49.8123 16.9624C49.5417 17.0588 49.2621 17.133 48.99 17.2265C48.3477 17.4476 47.7174 17.6865 47.1823 18.1198C46.4054 18.7505 45.952 19.5696 45.6829 20.5044C45.5952 20.8086 45.5469 21.1247 45.4048 21.4126C45.3383 21.5476 45.2597 21.6975 45.0813 21.6915C44.8864 21.6856 44.7806 21.5461 44.7292 21.377C44.64 21.0906 44.572 20.7968 44.4828 20.5104C44.0671 19.1763 43.3371 18.1005 41.9692 17.5381C41.6715 17.415 41.3782 17.2873 41.0608 17.2146C40.8296 17.1627 40.6043 17.0826 40.3761 17.0217C40.2008 16.9757 40.0436 16.8941 40.03 16.7042C40.0149 16.4816 40.1887 16.3926 40.3791 16.3377C40.6709 16.2516 40.9611 16.1522 41.2573 16.0809C42.8716 15.6892 43.857 14.6505 44.3906 13.1503C44.5085 12.8208 44.5901 12.4781 44.6899 12.1427C44.7231 12.0314 44.7488 11.9127 44.8093 11.8162C44.9634 11.5699 45.237 11.5788 45.367 11.8326C45.4275 11.9498 45.4562 12.0833 45.491 12.2124C45.6421 12.7778 45.8205 13.3313 46.0895 13.8551C46.6336 14.9116 47.5073 15.5764 48.6348 15.9459C49.0218 16.072 49.4087 16.1997 49.7956 16.3243C49.9513 16.3748 50.0753 16.4475 50.0783 16.6315C50.0798 16.811 49.9619 16.9075 49.8123 16.9594V16.9624Z" fill="#00A6FB"/>
</g>
<defs>
<clipPath id="clip0_9039_119">
<rect width="250" height="62" fill="white"/>
</clipPath>
</defs>
</svg>
